<svg xmlns:xlink="http://www.w3.org/1999/xlink" xmlns="http://www.w3.org/2000/svg" id="4tmaaHv-i" viewBox="0 0 220.36923076923077 81.00000000000001" height="81.00000000000001" width="220.36923076923077" style="width: 220.369px; height: 81px; position: absolute; top: 50%; left: 50%; z-index: 0; cursor: pointer; transform: translate(-50%, -50%) scale(0.69683);"><defs id="SvgjsDefs1151"></defs><g id="SvgjsG1152" featurekey="0LeO0L-0" transform="matrix(5.796209801875078,0,0,5.796209801875078,-1.1886867209274903,-34.922054055138574)" fill="#4ECCA3"><path d="M0.20508 6.025 l3.6035 -0.000019073 c2.1094 0 3.457 0.54362 4.043 1.6309 c0.34505 0.69011 0.51758 1.5657 0.51758 2.627 c-0.019531 0.1888 -0.029297 0.38086 -0.029297 0.57617 l2.002 0 l0 0.67383 l-2.0703 0 l0 -0.019531 c0.032549 -0.40364 0.048828 -0.62174 0.048828 -0.65429 l-1.1621 0 l0 0.67383 l1.1133 0 l0 2.373 l-2.3047 0 l0 0.82031 l-0.019531 0 c-1.7773 0.013018 -2.7832 0.019531 -3.0176 0.019531 l0 1.2305 l-0.48828 0 l0 2.1875 l0.27344 0 l0 1.8359 l-2.1875 0 l0 -0.85938 l-0.30273 0 l0 -0.72266 c0 -0.83333 -0.0065136 -2.1907 -0.019531 -4.0723 l1.3281 0 l0 -0.71289 l-1.3281 0 l0 -7.6074 z M2.9297 8.398 l0 3.9746 l0.83008 0 l0 -0.57617 l1.6504 0 c0.22136 -0.20183 0.33203 -0.76823 0.33203 -1.6992 c0 -0.89192 -0.20183 -1.403 -0.60547 -1.5332 c-0.14974 -0.11067 -0.49153 -0.16602 -1.0254 -0.16602 l-1.1816 0 z M8.4375 11.6797 l0.068359 0 c0.078125 0.065107 0.11719 0.12695 0.11719 0.18555 l0.15625 -0.18555 l0.097656 0 l0 0.039063 c-0.1237 0.16927 -0.18555 0.33203 -0.18555 0.48828 l-0.068359 0 c-0.032549 0 -0.055332 -0.091143 -0.06835 -0.27344 c-0.026045 0 -0.081387 -0.078125 -0.16603 -0.23438 z M8.4082 12.373000000000001 l0.41992 0 l0 0.11719 l-0.13672 0 l0 0.37109 c0 0.032549 -0.016279 0.048828 -0.048828 0.048828 l-0.048828 0 c-0.026045 0 -0.039063 -0.016279 -0.039063 -0.048828 l0 -0.37109 l-0.14648 0 l0 -0.11719 z" fill="#4ECCA3"></path></g><g id="SvgjsG1153" featurekey="pulpyG-0" transform="matrix(1.7349771875692739,0,0,1.7349771875692739,82.95901302561717,18.45762877757536)" fill="#393E46"><path d="M3.48 8.04 l0 5.7 l1.44 0 c0.12 0 0.19666 -0.02334 0.23 -0.07 s0.05 -0.12332 0.05 -0.22998 l0 -5.12 c0 -0.18666 -0.08666 -0.28 -0.26 -0.28 l-1.46 0 z M6.3 5.5 c0.57334 0 1.0033 0.15998 1.29 0.47998 s0.43 0.74666 0.43 1.28 l0 6.94 c0 0.28 -0.03 0.53666 -0.09 0.77 s-0.17 0.43668 -0.33 0.61002 s-0.37334 0.31 -0.64 0.41 s-0.6 0.15 -1 0.15 l-2.48 0 l0 3.86 l-2.88 0 l0 -14.5 l5.7 0 z M9.16 5.5 l2.9 0 l0 14.5 l-2.9 0 l0 -14.5 z M18.9 12.440000000000001 l2.06 7.56 l-2.94 0 l-1.12 -5.1 l-1.1 5.1 l-2.94 0 l2.06 -7.56 l-1.98 -6.94 l2.88 0 l1.08 5.1 l1.12 -5.1 l2.86 0 z M21.76 5.5 l5.64 0 l0.5 2.7 l-3.16 0 l0 3.44 l2.4 0 l0 2.5 l-2.4 0 l0 3.16 l3.04 0 l-0.5 2.7 l-5.52 0 l0 -14.5 z M28.900000000000002 5.5 l2.98 0 l0 11.8 l2.92 0 l-0.5 2.7 l-5.4 0 l0 -14.5 z M35.7 5.5 l5.64 0 l0.5 2.7 l-3.16 0 l0 3.44 l2.4 0 l0 2.5 l-2.4 0 l0 5.86 l-2.98 0 l0 -14.5 z M45 20 c-0.84 0 -1.4267 -0.17334 -1.76 -0.52 s-0.5 -0.92 -0.5 -1.72 l0 -12.26 l2.96 0 l0 11.64 c0 0.10666 0.01666 0.18666 0.05 0.24 s0.11 0.08 0.23 0.08 l1.02 0 c0.12 0 0.19666 -0.02666 0.23 -0.08 s0.05 -0.13334 0.05 -0.24 l0 -11.64 l2.96 0 l0 12.26 c0 0.8 -0.16666 1.3733 -0.5 1.72 s-0.92 0.52 -1.76 0.52 l-2.98 0 z M52.160000000000004 20 l-0.51996 -2.7 l3.12 0 c0.22666 0 0.34 -0.1 0.34 -0.3 l0 -2.64 c0 -0.2 -0.04 -0.32 -0.12 -0.36 s-0.22 -0.06 -0.42 -0.06 l-1.5 0 c-0.21334 0 -0.41668 -0.01666 -0.61002 -0.05 s-0.36668 -0.11 -0.52002 -0.23 s-0.27334 -0.28666 -0.36 -0.5 s-0.13 -0.5 -0.13 -0.86 l0 -4.92 c0 -0.57334 0.15666 -1.03 0.47 -1.37 s0.81 -0.51 1.49 -0.51 l4 0 l0.5 2.7 l-3.28 0 c-0.24 0 -0.36 0.10666 -0.36 0.32 l0 2.64 c0 0.14666 0.03666 0.24666 0.11 0.3 s0.18334 0.08 0.33 0.08 l1.82 0 c0.46666 0 0.82332 0.11 1.07 0.33 s0.37 0.60334 0.37 1.15 l0 4.78 c0 0.8 -0.16334 1.3667 -0.49 1.7 s-0.90332 0.5 -1.73 0.5 l-3.58 0 z M59.160000000000004 5.5 l2.9 0 l0 14.5 l-2.9 0 l0 -14.5 z M66.44 8.04 c-0.17334 0 -0.26 0.09334 -0.26 0.28 l0 8.84 c0 0.10666 0.01666 0.18332 0.05 0.22998 s0.11 0.07 0.23 0.07 l1.1 0 c0.12 0 0.19666 -0.02334 0.23 -0.07 s0.05 -0.12332 0.05 -0.22998 l0 -8.84 c0 -0.18666 -0.08666 -0.28 -0.26 -0.28 l-1.14 0 z M70.78 17.94 c0 0.28 -0.03334 0.54334 -0.1 0.79 s-0.18 0.46332 -0.34 0.64998 s-0.37334 0.33666 -0.64 0.45 s-0.6 0.17 -1 0.17 l-3.36 0 c-0.4 0 -0.73334 -0.05666 -1 -0.17 s-0.48 -0.26334 -0.64 -0.45 s-0.27334 -0.40332 -0.34 -0.64998 s-0.1 -0.51 -0.1 -0.79 l0 -10.56 c0 -0.57334 0.15666 -1.03 0.47 -1.37 s0.81 -0.51 1.49 -0.51 l3.6 0 c0.68 0 1.1767 0.17 1.49 0.51 s0.47 0.79666 0.47 1.37 l0 10.56 z M71.98 5.5 l2.76 0 l1.48 5.82 l0 -5.82 l2.98 0 l0 14.5 l-2.98 0 l-1.56 -6.06 l0 6.06 l-2.68 0 l0 -14.5 z" fill="#393E46"></path></g></svg>