<svg width="52" height="52" viewBox="0 0 52 52" fill="none" xmlns="http://www.w3.org/2000/svg">
    <path
        d="M35.7099 34.29L31.9999 30.61C33.44 28.8144 34.1374 26.5353 33.9487 24.2413C33.76 21.9473 32.6996 19.8128 30.9854 18.2766C29.2713 16.7405 27.0337 15.9195 24.7328 15.9825C22.4319 16.0454 20.2426 16.9876 18.615 18.6151C16.9875 20.2427 16.0453 22.432 15.9824 24.7329C15.9194 27.0338 16.7404 29.2714 18.2765 30.9855C19.8127 32.6997 21.9472 33.7601 24.2412 33.9488C26.5352 34.1375 28.8143 33.4401 30.6099 32L34.2899 35.68C34.3829 35.7737 34.4935 35.8481 34.6153 35.8989C34.7372 35.9497 34.8679 35.9758 34.9999 35.9758C35.1319 35.9758 35.2626 35.9497 35.3845 35.8989C35.5063 35.8481 35.6169 35.7737 35.7099 35.68C35.8901 35.4935 35.9909 35.2443 35.9909 34.985C35.9909 34.7257 35.8901 34.4765 35.7099 34.29ZM24.9999 32C23.6154 32 22.2621 31.5895 21.1109 30.8203C19.9598 30.0511 19.0626 28.9579 18.5327 27.6788C18.0029 26.3997 17.8643 24.9922 18.1344 23.6344C18.4045 22.2765 19.0712 21.0292 20.0502 20.0502C21.0291 19.0713 22.2764 18.4046 23.6343 18.1345C24.9921 17.8644 26.3996 18.003 27.6787 18.5328C28.9578 19.0627 30.051 19.9599 30.8202 21.111C31.5894 22.2621 31.9999 23.6155 31.9999 25C31.9999 26.8565 31.2624 28.637 29.9497 29.9497C28.6369 31.2625 26.8564 32 24.9999 32Z"
        fill="grey" />
    <circle cx="26" cy="26" r="25" stroke="#B3B3B3" stroke-width="2" />
</svg>